# xmcd CD database file
#
# Track frame offsets:
#	150
#	2062
#	13080
#	29877
#	47420
#	63282
#	78095
#	92930
#	112265
#	124510
#	133722
#	143625
#	149420
#	162545
#
# Disc length: 2806 seconds
#
# Revision: 75
# Processed by: cddbd v1.5.2PL0 Copyright (c) Steve Scherf et al.
# Submitted via: jetAudio 7
#
DISCID=c20af40e
DTITLE=Offspring - Smash
DYEAR=1994
DGENRE=Rock
TTITLE0=Time to relax
TTITLE1=Nitro (Youth energy)
TTITLE2=Bad habit
TTITLE3=Gotta get away
TTITLE4=Genocide
TTITLE5=Something to believe in
TTITLE6=Come out and play
TTITLE7=Self esteem
TTITLE8=It'll be a long time
TTITLE9=Killboy powerhead
TTITLE10=What happened to you
TTITLE11=So alone
TTITLE12=Not the one
TTITLE13=Smash
EXTD=
EXTT0=
EXTT1=
EXTT2=
EXTT3=
EXTT4=
EXTT5=
EXTT6=
EXTT7=
EXTT8=
EXTT9=
EXTT10=
EXTT11=
EXTT12=
EXTT13=
PLAYORDER=
